<?xml version="1.0" encoding="UTF-8" standalone="no"?>
<!DOCTYPE svg PUBLIC "-//W3C//DTD SVG 1.1//EN" "http://www.w3.org/Graphics/SVG/1.1/DTD/svg11.dtd">
<svg xmlns="http://www.w3.org/2000/svg" xmlns:xl="http://www.w3.org/1999/xlink" version="1.1" viewBox="-2 281 203 203" width="203pt" height="203pt" xmlns:dc="http://purl.org/dc/elements/1.1/"><metadata> Produced by OmniGraffle 6.6.2 <dc:date>2017-07-23 14:39:41 +0000</dc:date></metadata><defs><linearGradient x1="0" x2="1" id="Gradient" gradientUnits="userSpaceOnUse"><stop offset="0" stop-color="#666"/><stop offset="1" stop-color="#4c4c4c"/></linearGradient><linearGradient id="Obj_Gradient" xl:href="#Gradient" gradientTransform="translate(19.957979 269.48984) rotate(55) scale(276.35242)"/><radialGradient cx="0" cy="0" r="1" id="Gradient_2" gradientUnits="userSpaceOnUse"><stop offset="0" stop-color="red"/><stop offset=".61825284" stop-color="maroon"/><stop offset="1" stop-color="#333"/></radialGradient><radialGradient id="Obj_Gradient_2" xl:href="#Gradient_2" gradientTransform="translate(114.312905 395.38921) scale(110.05625)"/></defs><g stroke="none" stroke-opacity="1" stroke-dasharray="none" fill="none" fill-opacity="1"><title>lights</title><g><title>Laag 1</title><path d="M 8 283.46457 L 190.4252 283.46457 C 194.84347 283.46457 198.4252 287.04629 198.4252 291.46457 L 198.4252 473.88976 C 198.4252 478.30804 194.84347 481.88976 190.4252 481.88976 L 8 481.88976 C 3.581722 481.88976 541083e-21 478.30804 0 473.88976 L 10658141e-21 291.46457 C 11199224e-21 287.04629 3.581722 283.46457 8 283.46457 Z" fill="url(#Obj_Gradient)"/><path d="M 8 283.46457 L 190.4252 283.46457 C 194.84347 283.46457 198.4252 287.04629 198.4252 291.46457 L 198.4252 473.88976 C 198.4252 478.30804 194.84347 481.88976 190.4252 481.88976 L 8 481.88976 C 3.581722 481.88976 541083e-21 478.30804 0 473.88976 L 10658141e-21 291.46457 C 11199224e-21 287.04629 3.581722 283.46457 8 283.46457 Z" stroke="black" stroke-linecap="round" stroke-linejoin="round" stroke-width="1"/><circle cx="99.2126" cy="382.67716" r="70.866255" fill="url(#Obj_Gradient_2)"/><circle cx="99.2126" cy="382.67716" r="70.866255" stroke="black" stroke-linecap="round" stroke-linejoin="round" stroke-width="1"/></g></g></svg>
